<svg width="32" height="32" viewBox="0 0 32 32" fill="none" xmlns="http://www.w3.org/2000/svg">
<g clip-path="url(#clip0_34_1266)">
<g filter="url(#filter0_iii_34_1266)">
<path d="M16.7979 0.850586C17.8392 0.705427 18.9124 0.859117 19.9736 1.44922C21.0432 2.04392 22.1451 3.10795 23.1855 4.85254L23.4043 5.21875L23.8301 5.24121C25.0267 5.30545 26.8766 5.83585 28.416 7.22559C29.929 8.59158 31.2002 10.8397 31.2002 14.4648C31.2001 18.1727 30.2601 20.0344 29.2402 21C28.2103 21.9751 26.9449 22.1879 25.9453 22.2568L25.4453 22.291L25.2578 22.7559C24.9188 23.597 24.4656 24.5699 23.3818 25.251C22.2958 25.9334 20.4282 26.4103 17.0752 25.875L16.6943 25.8145L16.4092 26.0752C15.6209 26.7957 14.2443 27.3778 12.6494 27.1494C11.0787 26.9244 9.17914 25.8932 7.38184 23.1738L7.00488 22.6025L6.38184 22.8877C5.25045 23.4048 4.2453 23.2017 3.37109 22.5361C2.45846 21.8411 1.68739 20.6276 1.23145 19.1807C0.777781 17.741 0.663974 16.1571 0.975586 14.7852C1.28501 13.4233 1.99894 12.3133 3.17773 11.6846L3.55078 11.4854L3.59668 11.0654C3.73621 9.78624 4.27054 7.9418 5.37402 6.56641C6.43756 5.24096 8.03335 4.33111 10.4795 4.79297L10.9648 4.88477L11.2646 4.49121C12.6268 2.69979 14.6758 1.14643 16.7979 0.850586Z" stroke="black" stroke-opacity="0.42" stroke-width="1.6" stroke-linecap="round"/>
</g>
<g filter="url(#filter1_iii_34_1266)">
<path d="M16.665 3.83887C17.4866 3.72812 18.3306 3.84538 19.165 4.29395C20.0063 4.74631 20.883 5.55979 21.7158 6.91016L21.9355 7.26758L22.3555 7.28906C23.3045 7.33836 24.776 7.7475 25.9971 8.81348C27.1897 9.85476 28.2002 11.5711 28.2002 14.3652C28.2001 17.2443 27.4464 18.6499 26.6641 19.3662C25.866 20.0969 24.8785 20.2626 24.0723 20.3164L23.5771 20.3496L23.3867 20.8066C23.1156 21.4573 22.7645 22.18 21.9277 22.6885C21.0837 23.2013 19.6016 23.5782 16.8936 23.1602L16.5225 23.1035L16.2412 23.3516C15.6332 23.8891 14.5545 24.3363 13.2959 24.1621C12.0627 23.9914 10.5542 23.2074 9.11621 21.1035L8.74023 20.5537L8.13184 20.8232C7.25945 21.2087 6.49179 21.0577 5.81934 20.5625C5.1113 20.041 4.50333 19.1217 4.1416 18.0117C3.78179 16.9075 3.69349 15.6987 3.9375 14.6602C4.17849 13.6345 4.73051 12.8073 5.64258 12.3369L6.02344 12.1406L6.07129 11.7158C6.18173 10.7367 6.60624 9.32409 7.47559 8.27637C8.30464 7.27736 9.5511 6.58134 11.4912 6.93555L11.9658 7.02148L12.2637 6.64258C13.3525 5.25776 14.9859 4.06539 16.665 3.83887Z" stroke="black" stroke-opacity="0.42" stroke-width="1.6" stroke-linecap="round"/>
</g>
<g opacity="0.7" filter="url(#filter2_iii_34_1266)">
<circle cx="5.5" cy="27.5" r="1.7" stroke="black" stroke-opacity="0.42" stroke-width="1.6" stroke-linecap="round"/>
</g>
<g opacity="0.5" filter="url(#filter3_iii_34_1266)">
<circle cx="1.5" cy="30.5" r="0.8" stroke="black" stroke-opacity="0.42" stroke-width="1.4" stroke-linecap="round"/>
</g>
<g filter="url(#filter4_f_34_1266)">
<ellipse cx="7.5" cy="17" rx="3.5" ry="3" fill="#D9D9D9"/>
</g>
<g filter="url(#filter5_f_34_1266)">
<ellipse cx="12.5" cy="20" rx="3.5" ry="3" fill="#D9D9D9"/>
</g>
<g filter="url(#filter6_f_34_1266)">
<ellipse cx="19" cy="16.5" rx="4" ry="3.5" fill="#D9D9D9"/>
</g>
<g filter="url(#filter7_f_34_1266)">
<ellipse cx="24" cy="12.5" rx="5" ry="4.5" fill="#D9D9D9"/>
</g>
</g>
<defs>
<filter id="filter0_iii_34_1266" x="0" y="-6.4" width="32" height="37.6" filterUnits="userSpaceOnUse" color-interpolation-filters="sRGB">
<feFlood flood-opacity="0" result="BackgroundImageFix"/>
<feBlend mode="normal" in="SourceGraphic" in2="BackgroundImageFix" result="shape"/>
<feColorMatrix in="SourceAlpha" type="matrix" values="0 0 0 0 0 0 0 0 0 0 0 0 0 0 0 0 0 0 127 0" result="hardAlpha"/>
<feOffset dy="-6.4"/>
<feGaussianBlur stdDeviation="3.2"/>
<feComposite in2="hardAlpha" operator="arithmetic" k2="-1" k3="1"/>
<feColorMatrix type="matrix" values="0 0 0 0 0 0 0 0 0 0 0 0 0 0 0 0 0 0 0.25 0"/>
<feBlend mode="normal" in2="shape" result="effect1_innerShadow_34_1266"/>
<feColorMatrix in="SourceAlpha" type="matrix" values="0 0 0 0 0 0 0 0 0 0 0 0 0 0 0 0 0 0 127 0" result="hardAlpha"/>
<feOffset dy="3.2"/>
<feGaussianBlur stdDeviation="2.4"/>
<feComposite in2="hardAlpha" operator="arithmetic" k2="-1" k3="1"/>
<feColorMatrix type="matrix" values="0 0 0 0 0 0 0 0 0 0 0 0 0 0 0 0 0 0 0.15 0"/>
<feBlend mode="normal" in2="effect1_innerShadow_34_1266" result="effect2_innerShadow_34_1266"/>
<feColorMatrix in="SourceAlpha" type="matrix" values="0 0 0 0 0 0 0 0 0 0 0 0 0 0 0 0 0 0 127 0" result="hardAlpha"/>
<feOffset dy="-1.6"/>
<feGaussianBlur stdDeviation="0.8"/>
<feComposite in2="hardAlpha" operator="arithmetic" k2="-1" k3="1"/>
<feColorMatrix type="matrix" values="0 0 0 0 1 0 0 0 0 1 0 0 0 0 1 0 0 0 1 0"/>
<feBlend mode="normal" in2="effect2_innerShadow_34_1266" result="effect3_innerShadow_34_1266"/>
</filter>
<filter id="filter1_iii_34_1266" x="3" y="-3.4" width="26" height="31.6" filterUnits="userSpaceOnUse" color-interpolation-filters="sRGB">
<feFlood flood-opacity="0" result="BackgroundImageFix"/>
<feBlend mode="normal" in="SourceGraphic" in2="BackgroundImageFix" result="shape"/>
<feColorMatrix in="SourceAlpha" type="matrix" values="0 0 0 0 0 0 0 0 0 0 0 0 0 0 0 0 0 0 127 0" result="hardAlpha"/>
<feOffset dy="-6.4"/>
<feGaussianBlur stdDeviation="3.2"/>
<feComposite in2="hardAlpha" operator="arithmetic" k2="-1" k3="1"/>
<feColorMatrix type="matrix" values="0 0 0 0 0 0 0 0 0 0 0 0 0 0 0 0 0 0 0.25 0"/>
<feBlend mode="normal" in2="shape" result="effect1_innerShadow_34_1266"/>
<feColorMatrix in="SourceAlpha" type="matrix" values="0 0 0 0 0 0 0 0 0 0 0 0 0 0 0 0 0 0 127 0" result="hardAlpha"/>
<feOffset dy="3.2"/>
<feGaussianBlur stdDeviation="2.4"/>
<feComposite in2="hardAlpha" operator="arithmetic" k2="-1" k3="1"/>
<feColorMatrix type="matrix" values="0 0 0 0 0 0 0 0 0 0 0 0 0 0 0 0 0 0 0.15 0"/>
<feBlend mode="normal" in2="effect1_innerShadow_34_1266" result="effect2_innerShadow_34_1266"/>
<feColorMatrix in="SourceAlpha" type="matrix" values="0 0 0 0 0 0 0 0 0 0 0 0 0 0 0 0 0 0 127 0" result="hardAlpha"/>
<feOffset dy="-1.6"/>
<feGaussianBlur stdDeviation="0.8"/>
<feComposite in2="hardAlpha" operator="arithmetic" k2="-1" k3="1"/>
<feColorMatrix type="matrix" values="0 0 0 0 1 0 0 0 0 1 0 0 0 0 1 0 0 0 1 0"/>
<feBlend mode="normal" in2="effect2_innerShadow_34_1266" result="effect3_innerShadow_34_1266"/>
</filter>
<filter id="filter2_iii_34_1266" x="3" y="18.6" width="5" height="14.6" filterUnits="userSpaceOnUse" color-interpolation-filters="sRGB">
<feFlood flood-opacity="0" result="BackgroundImageFix"/>
<feBlend mode="normal" in="SourceGraphic" in2="BackgroundImageFix" result="shape"/>
<feColorMatrix in="SourceAlpha" type="matrix" values="0 0 0 0 0 0 0 0 0 0 0 0 0 0 0 0 0 0 127 0" result="hardAlpha"/>
<feOffset dy="-6.4"/>
<feGaussianBlur stdDeviation="3.2"/>
<feComposite in2="hardAlpha" operator="arithmetic" k2="-1" k3="1"/>
<feColorMatrix type="matrix" values="0 0 0 0 0 0 0 0 0 0 0 0 0 0 0 0 0 0 0.25 0"/>
<feBlend mode="normal" in2="shape" result="effect1_innerShadow_34_1266"/>
<feColorMatrix in="SourceAlpha" type="matrix" values="0 0 0 0 0 0 0 0 0 0 0 0 0 0 0 0 0 0 127 0" result="hardAlpha"/>
<feOffset dy="3.2"/>
<feGaussianBlur stdDeviation="2.4"/>
<feComposite in2="hardAlpha" operator="arithmetic" k2="-1" k3="1"/>
<feColorMatrix type="matrix" values="0 0 0 0 0 0 0 0 0 0 0 0 0 0 0 0 0 0 0.15 0"/>
<feBlend mode="normal" in2="effect1_innerShadow_34_1266" result="effect2_innerShadow_34_1266"/>
<feColorMatrix in="SourceAlpha" type="matrix" values="0 0 0 0 0 0 0 0 0 0 0 0 0 0 0 0 0 0 127 0" result="hardAlpha"/>
<feOffset dy="-1.6"/>
<feGaussianBlur stdDeviation="0.8"/>
<feComposite in2="hardAlpha" operator="arithmetic" k2="-1" k3="1"/>
<feColorMatrix type="matrix" values="0 0 0 0 1 0 0 0 0 1 0 0 0 0 1 0 0 0 1 0"/>
<feBlend mode="normal" in2="effect2_innerShadow_34_1266" result="effect3_innerShadow_34_1266"/>
</filter>
<filter id="filter3_iii_34_1266" x="0" y="22.6" width="3" height="12.6" filterUnits="userSpaceOnUse" color-interpolation-filters="sRGB">
<feFlood flood-opacity="0" result="BackgroundImageFix"/>
<feBlend mode="normal" in="SourceGraphic" in2="BackgroundImageFix" result="shape"/>
<feColorMatrix in="SourceAlpha" type="matrix" values="0 0 0 0 0 0 0 0 0 0 0 0 0 0 0 0 0 0 127 0" result="hardAlpha"/>
<feOffset dy="-6.4"/>
<feGaussianBlur stdDeviation="3.2"/>
<feComposite in2="hardAlpha" operator="arithmetic" k2="-1" k3="1"/>
<feColorMatrix type="matrix" values="0 0 0 0 0 0 0 0 0 0 0 0 0 0 0 0 0 0 0.25 0"/>
<feBlend mode="normal" in2="shape" result="effect1_innerShadow_34_1266"/>
<feColorMatrix in="SourceAlpha" type="matrix" values="0 0 0 0 0 0 0 0 0 0 0 0 0 0 0 0 0 0 127 0" result="hardAlpha"/>
<feOffset dy="3.2"/>
<feGaussianBlur stdDeviation="2.4"/>
<feComposite in2="hardAlpha" operator="arithmetic" k2="-1" k3="1"/>
<feColorMatrix type="matrix" values="0 0 0 0 0 0 0 0 0 0 0 0 0 0 0 0 0 0 0.15 0"/>
<feBlend mode="normal" in2="effect1_innerShadow_34_1266" result="effect2_innerShadow_34_1266"/>
<feColorMatrix in="SourceAlpha" type="matrix" values="0 0 0 0 0 0 0 0 0 0 0 0 0 0 0 0 0 0 127 0" result="hardAlpha"/>
<feOffset dy="-1.6"/>
<feGaussianBlur stdDeviation="0.8"/>
<feComposite in2="hardAlpha" operator="arithmetic" k2="-1" k3="1"/>
<feColorMatrix type="matrix" values="0 0 0 0 1 0 0 0 0 1 0 0 0 0 1 0 0 0 1 0"/>
<feBlend mode="normal" in2="effect2_innerShadow_34_1266" result="effect3_innerShadow_34_1266"/>
</filter>
<filter id="filter4_f_34_1266" x="-2" y="8" width="19" height="18" filterUnits="userSpaceOnUse" color-interpolation-filters="sRGB">
<feFlood flood-opacity="0" result="BackgroundImageFix"/>
<feBlend mode="normal" in="SourceGraphic" in2="BackgroundImageFix" result="shape"/>
<feGaussianBlur stdDeviation="3" result="effect1_foregroundBlur_34_1266"/>
</filter>
<filter id="filter5_f_34_1266" x="3" y="11" width="19" height="18" filterUnits="userSpaceOnUse" color-interpolation-filters="sRGB">
<feFlood flood-opacity="0" result="BackgroundImageFix"/>
<feBlend mode="normal" in="SourceGraphic" in2="BackgroundImageFix" result="shape"/>
<feGaussianBlur stdDeviation="3" result="effect1_foregroundBlur_34_1266"/>
</filter>
<filter id="filter6_f_34_1266" x="9" y="7" width="20" height="19" filterUnits="userSpaceOnUse" color-interpolation-filters="sRGB">
<feFlood flood-opacity="0" result="BackgroundImageFix"/>
<feBlend mode="normal" in="SourceGraphic" in2="BackgroundImageFix" result="shape"/>
<feGaussianBlur stdDeviation="3" result="effect1_foregroundBlur_34_1266"/>
</filter>
<filter id="filter7_f_34_1266" x="13" y="2" width="22" height="21" filterUnits="userSpaceOnUse" color-interpolation-filters="sRGB">
<feFlood flood-opacity="0" result="BackgroundImageFix"/>
<feBlend mode="normal" in="SourceGraphic" in2="BackgroundImageFix" result="shape"/>
<feGaussianBlur stdDeviation="3" result="effect1_foregroundBlur_34_1266"/>
</filter>
<clipPath id="clip0_34_1266">
<rect width="32" height="32" fill="white"/>
</clipPath>
</defs>
</svg>
