<svg width="49" height="34" viewBox="0 0 49 34" fill="none" xmlns="http://www.w3.org/2000/svg">
<path fill-rule="evenodd" clip-rule="evenodd" d="M12.6493 0.805687V1.61137L11.904 1.62684C11.4942 1.63538 11.0772 1.64296 10.9775 1.64384L10.7962 1.64529V3.19946V4.75355H9.99052H9.18483V6.32464V7.89573H8.37915H7.57346V9.34597V10.7962H6.76777H5.96209V12.2464V13.6967H5.19668H4.43128V15.0261V16.3555H3.71486C3.00264 16.3555 2.9982 16.3567 2.94358 16.5744C2.91328 16.6949 2.89782 17.3929 2.90918 18.1254L2.92972 19.4573L2.2303 19.4806L1.53081 19.5039V20.5885V21.673H0.765403H0V26.628V31.5829H1.20853H2.41706V32.7915V34H20.7867H39.1564V32.3886V30.7773H39.9218H40.6872V29.1659V27.5545L41.3116 27.5407C41.6551 27.5332 42.0085 27.5234 42.0972 27.5191C42.2524 27.5116 42.2591 27.4473 42.2801 25.7604L42.3017 24.0095H43.1059H43.91V22.519V21.0284H44.6754H45.4408V19.3768V17.7251H46.1659H46.891V16.1573V14.5895L47.5361 14.566C47.8909 14.5532 48.1809 14.5155 48.1807 14.4822C48.1803 14.449 48.1801 12.6219 48.1801 10.422V6.42205L47.1843 6.46508C46.6366 6.48868 46.0958 6.49029 45.9824 6.46862L45.7762 6.42922L45.7789 3.71816C45.7803 2.22708 45.7773 0.78055 45.7723 0.503555L45.763 0H42.3791H38.9953V0.965455V1.93091L41.0296 1.95242L43.064 1.97393L43.0861 3.28318L43.1083 4.59242H42.4214H41.7346V5.55924V6.52607H41.1323H40.5302L40.5079 7.79502C40.4892 8.86949 40.4673 9.06108 40.3649 9.04505C40.2985 9.03466 39.9903 9.07293 39.6801 9.13013L39.1161 9.23414L39.0658 10.3979C39.0381 11.0379 39.011 11.752 39.0054 11.9846L38.9953 12.4076H38.391H37.7867V13.4953V14.5829H37.0983H36.4099L36.4336 15.993L36.4573 17.403L35.8329 17.4029L35.2085 17.4028V18.4502V19.4976H34.564H33.9194V20.263V21.0284H20.263H6.60664L6.60575 20.5652C6.60527 20.3103 6.58238 19.966 6.55491 19.7998L6.50496 19.4976H7.24643H7.98783L7.96833 18.4704L7.94891 17.4431L8.64744 17.4198L9.34597 17.3966V15.9092V14.4218H10.1517H10.9573V12.6896V10.9573H11.763H12.5687V9.42654V7.89573H13.3744H14.1801V6.32464V4.75355H14.9052H15.6303V3.43585V2.11815L16.7784 2.08455C17.9883 2.04918 18.162 2.04902 23.8685 2.07706L27.4739 2.09479V2.77962V3.46446H27.0596H26.6454L26.6873 4.34668L26.7291 5.22891L26.3562 5.25308L25.9834 5.27725L25.9608 6.32464C25.9381 7.37139 25.9381 7.37212 25.7232 7.47275C25.6049 7.5281 25.4066 7.57346 25.2825 7.57346H25.0569L25.0393 8.31872C25.0296 8.72857 25.0173 9.24526 25.0119 9.46682L25.002 9.86967L24.6669 9.8944L24.3318 9.91922V10.7202V11.5213H23.9692H23.6066V12.2062V12.891H24.2915H24.9763V12.2943V11.6977L25.782 11.7421L26.5877 11.7865V11.1704V10.5545H27.3934H28.1991V10.269V9.98343L28.7832 10.0071L29.3673 10.0308L29.3923 10.3329L29.4173 10.6351H30.057H30.6967V11.1991V11.763H31.3815H32.0664V12.4076V13.0521H32.7109H33.3555V12.2062V11.3602H33.7583H34.1611V10.1621V8.96391L34.6446 8.90929L35.128 8.85458V7.60972V6.36493H35.5308H35.9337V5.59953C35.9337 4.89874 35.9467 4.83412 36.0882 4.83412C36.4752 4.83412 36.4976 4.78304 36.4976 3.89896V3.06161H37.1019H37.7062V1.53081V0H25.1777H12.6493V0.805687ZM44.3934 8.94313V9.99052H43.74H43.0868L43.1156 11.2192L43.1446 12.4479L42.4799 12.4712L41.8152 12.4947V13.5791V14.6635H41.2109H40.6066V16.1137V17.564H39.8815H39.1564V19.2962V21.0284H38.4313H37.7062V22.4787C37.7062 23.8007 37.6937 23.9302 37.5652 23.9431C37.4877 23.9509 37.2066 23.96 36.9408 23.9632L36.4573 23.9692V26.346V28.7227H37.1019H37.7464L37.7683 27.0912L37.79 25.4597H38.433H39.0758L39.0874 24.4727C39.0937 23.93 39.1091 23.2139 39.1216 22.8815L39.1443 22.2773L39.8352 22.254L40.5261 22.2307V20.8642V19.4976H41.1279H41.7298L41.7523 18.4704L41.7749 17.4431L42.3993 17.4196L43.0237 17.3961V15.9927V14.5895L43.6884 14.566L44.3531 14.5427L44.3756 13.4295L44.398 12.3164L44.9798 12.3352L45.5616 12.3542L45.583 10.1749L45.6045 7.9958L45.4219 7.94682C45.3215 7.91999 45.049 7.89743 44.8164 7.89686L44.3934 7.89573V8.94313ZM4.51185 27.3531V30.6967H18.3294H32.1469V29.8507V29.0047H31.5829H31.019V28.2796V27.5545L27.6955 27.5427C25.8676 27.5363 20.3839 27.5272 15.5095 27.5226L6.64692 27.5142V26.5666V25.6188L19.3969 25.6204L32.1469 25.6218V24.8156V24.0095H18.3294H4.51185V27.3531Z" fill="#E8704E"/>
</svg>
